<svg width="557" height="337" viewBox="0 0 557 337" fill="none" xmlns="http://www.w3.org/2000/svg">
<path d="M0 40.0919C0 35.2482 1.75783 30.5691 4.94706 26.9234L22.5237 6.83152C26.3215 2.49025 31.8087 0 37.5767 0H164.716C169.116 0 173.392 1.45055 176.884 4.12699L208.616 28.4515C212.108 31.1279 216.384 32.5784 220.784 32.5784H537C548.046 32.5784 557 41.5327 557 52.5784V317C557 328.046 548.046 337 537 337H500.803C496.701 337 492.697 335.738 489.336 333.386L470.664 320.319C467.303 317.967 463.3 316.705 459.197 316.705H118.283C115.139 316.705 112.039 317.447 109.234 318.87L77.7658 334.836C74.9615 336.258 71.8612 337 68.7165 337H20C8.95431 337 0 328.046 0 317V40.0919Z" fill="#3097BA" fill-opacity="0.1"/>
<path d="M556 52.5784V317C556 327.493 547.493 336 537 336H500.803C496.906 336 493.102 334.801 489.909 332.567L471.238 319.5C467.708 317.03 463.505 315.705 459.197 315.705H118.283C114.982 315.705 111.726 316.484 108.782 317.978L77.3133 333.944C74.6492 335.296 71.7039 336 68.7165 336H20C9.50659 336 1 327.493 1 317V40.0919C1 35.4904 2.66994 31.0452 5.69971 27.5819L23.2764 7.48994C26.8843 3.36574 32.0971 1 37.5767 1H164.716C168.896 1 172.959 2.37802 176.275 4.92064L208.008 29.2451C211.674 32.0554 216.164 33.5784 220.784 33.5784H537C547.493 33.5784 556 42.085 556 52.5784Z" stroke="url(#paint0_linear_1511_638)" stroke-opacity="0.6" stroke-width="2"/>
<defs>
<linearGradient id="paint0_linear_1511_638" x1="64.9667" y1="48.7003" x2="506.987" y2="366.475" gradientUnits="userSpaceOnUse">
<stop stop-color="#3097BA"/>
<stop offset="0.0742427" stop-color="white"/>
<stop offset="0.937539" stop-color="#3097BA"/>
<stop offset="1" stop-color="white"/>
</linearGradient>
</defs>
</svg>
