<svg width="362" height="221" viewBox="0 0 362 221" fill="none" xmlns="http://www.w3.org/2000/svg">
<path d="M362 20C362 8.9543 353.046 0 342 0H297.924C293.624 0 289.439 1.38575 285.988 3.95177L269.122 16.4959C265.672 19.0619 261.486 20.4477 257.186 20.4477H82.7516C78.332 20.4477 74.0368 18.9837 70.5371 16.2845L54.8209 4.16312C51.3212 1.46394 47.0261 0 42.6064 0H20C8.95431 0 -1.01328e-05 8.9543 -1.01328e-05 20V170.93C-1.01328e-05 176.913 2.6787 182.582 7.30103 186.381L43.8884 216.451C47.4669 219.392 51.9553 221 56.5874 221H342C353.046 221 362 212.046 362 201V20Z" fill="#3097BA" fill-opacity="0.1"/>
<path d="M361 201V20C361 9.50659 352.493 1 342 1H297.924C293.839 1 289.863 2.31647 286.585 4.75418L269.719 17.2983C266.096 19.9926 261.701 21.4477 257.186 21.4477H82.7516C78.111 21.4477 73.601 19.9105 69.9264 17.0764L54.2102 4.95497C50.8855 2.39075 46.8051 1 42.6064 1H20C9.50659 1 1 9.50659 1 20V170.93C1 176.614 3.54477 181.999 7.93597 185.608L44.5233 215.679C47.9229 218.473 52.1869 220 56.5873 220H342C352.493 220 361 211.493 361 201Z" stroke="url(#paint0_linear_1511_1286)" stroke-opacity="0.6" stroke-width="2"/>
<defs>
<linearGradient id="paint0_linear_1511_1286" x1="319.778" y1="11.704" x2="11.6582" y2="210.009" gradientUnits="userSpaceOnUse">
<stop stop-color="#3097BA"/>
<stop offset="0.0742427" stop-color="white"/>
<stop offset="0.937539" stop-color="#3097BA"/>
<stop offset="1" stop-color="white"/>
</linearGradient>
</defs>
</svg>
