<svg width="1207" height="103" viewBox="0 0 1207 103" fill="none" xmlns="http://www.w3.org/2000/svg">
<path d="M0 21.261C0 18.4249 1.50161 15.8008 3.94679 14.3638L26.5126 1.10279C27.7414 0.380722 29.1407 0 30.5659 0H465.988C467.65 0 469.271 0.517531 470.625 1.48071L489.918 15.2025C491.272 16.1657 492.893 16.6832 494.555 16.6832H1199C1203.42 16.6832 1207 20.2649 1207 24.6832V95C1207 99.4183 1203.42 103 1199 103H840.732C838.813 103 836.958 102.31 835.505 101.057L822.752 90.0517C821.299 88.7981 819.444 88.1084 817.526 88.1084H404.055H7.99998C3.58171 88.1084 0 84.5267 0 80.1084V21.261Z" fill="#3097BA" fill-opacity="0.1"/>
<path d="M1206 24.6832V95C1206 98.866 1202.87 102 1199 102H840.732C839.053 102 837.43 101.397 836.159 100.3L823.405 89.2946C821.771 87.8843 819.684 87.1084 817.526 87.1084H404.055H7.99998C4.13399 87.1084 1 83.9744 1 80.1084V21.261C1 18.7794 2.31391 16.4833 4.45344 15.226L27.0193 1.96494C28.0944 1.33313 29.3188 1 30.5659 1H465.988C467.442 1 468.86 1.45284 470.045 2.29562L489.339 16.0174C490.862 17.101 492.685 17.6832 494.555 17.6832H1199C1202.87 17.6832 1206 20.8172 1206 24.6832Z" stroke="url(#paint0_linear_1511_631)" stroke-opacity="0.6" stroke-width="2"/>
<defs>
<linearGradient id="paint0_linear_1511_631" x1="351.885" y1="21.2545" x2="434.093" y2="257.029" gradientUnits="userSpaceOnUse">
<stop stop-color="#3097BA"/>
<stop offset="0.0742427" stop-color="white"/>
<stop offset="0.937539" stop-color="#3097BA"/>
<stop offset="1" stop-color="white"/>
</linearGradient>
</defs>
</svg>
