<svg width="553" height="337" viewBox="0 0 553 337" fill="none" xmlns="http://www.w3.org/2000/svg">
<path d="M0 20C0 8.9543 8.9543 0 20 0H101.388C105.682 0 109.862 1.38198 113.309 3.94153L144.691 27.2388C148.138 29.7984 152.318 31.1804 156.612 31.1804H430.193C434.607 31.1804 438.896 29.7204 442.394 27.0278L472.106 4.15254C475.604 1.46002 479.893 0 484.307 0H533C544.046 0 553 8.9543 553 20V265.598C553 271.587 550.316 277.261 545.685 281.06L483.031 332.462C479.455 335.396 474.972 337 470.346 337H20C8.95432 337 0 328.046 0 317V20Z" fill="#3097BA" fill-opacity="0.1"/>
<path d="M1 317V20C1 9.50658 9.50659 1 20 1H101.388C105.467 1 109.438 2.31288 112.713 4.74445L144.095 28.0418C147.715 30.7293 152.104 32.1804 156.612 32.1804H430.193C434.827 32.1804 439.332 30.6474 443.004 27.8202L472.716 4.94491C476.039 2.38702 480.114 1 484.307 1H533C543.493 1 552 9.50659 552 20V265.598C552 271.288 549.45 276.678 545.051 280.287L482.397 331.689C478.999 334.477 474.74 336 470.346 336H20C9.5066 336 1 327.493 1 317Z" stroke="url(#paint0_linear_1511_662)" stroke-opacity="0.6" stroke-width="2"/>
<defs>
<linearGradient id="paint0_linear_1511_662" x1="64.5" y1="17.8473" x2="534.696" y2="321.007" gradientUnits="userSpaceOnUse">
<stop stop-color="#3097BA"/>
<stop offset="0.0742427" stop-color="white"/>
<stop offset="0.937539" stop-color="#3097BA"/>
<stop offset="1" stop-color="white"/>
</linearGradient>
</defs>
</svg>
