<svg width="1900" height="642" viewBox="0 0 1900 642" fill="none" xmlns="http://www.w3.org/2000/svg">
<g clip-path="url(#clip0_129_51)">
<path d="M0 41L46 40C91.1 57.4 180.7 82.3001 271.2 78.2001C361.7 74.0001 452.3 31.0001 542.8 28.5001C633.3 26.0001 723.7 64.0001 814.2 76.3001C904.7 88.7001 995.3 75.3001 1085.8 75.0001C1176.3 74.7001 1266.7 87.3001 1357.2 86.3001C1447.7 85.3001 1538.3 70.7001 1628.8 60.8001C1719.3 51.0001 1809.7 46.0001 1854.8 43.5001L1900 41.0001V643H1854.8C1809.7 643 1719.3 643 1628.8 643C1538.3 643 1447.7 643 1357.2 643C1266.7 643 1176.3 643 1085.8 643C995.3 643 904.7 643 814.2 643C723.7 643 633.3 643 542.8 643C452.3 643 361.7 643 271.2 643C180.7 643 90.3 643 45.2 643H0V41Z" fill="#023373"/>
<path d="M0 176.5H43C88.1 164.9 180.7 171.3 271.2 166C361.7 160.7 452.3 173.3 542.8 177.7C633.3 182 723.7 178 814.2 166C904.7 154 995.3 134 1085.8 140.7C1176.3 147.3 1266.7 180.7 1357.2 194.3C1447.7 208 1538.3 202 1628.8 195.8C1719.3 189.7 1809.7 183.3 1854.8 180.2L1900 177V643H1854.8C1809.7 643 1719.3 643 1628.8 643C1538.3 643 1447.7 643 1357.2 643C1266.7 643 1176.3 643 1085.8 643C995.3 643 904.7 643 814.2 643C723.7 643 633.3 643 542.8 643C452.3 643 361.7 643 271.2 643C180.7 643 90.3 643 45.2 643H0V176.5Z" fill="#005B9B"/>
<path d="M0 233.5L45.2 244.2C90.3 252.3 180.7 268.7 271.2 270.3C361.7 272 452.3 259 542.8 251.2C633.3 243.3 723.7 240.7 814.2 247.2C904.7 253.7 995.3 269.3 1085.8 281.2C1176.3 293 1266.7 301 1357.2 308.2C1447.7 315.3 1538.3 321.7 1628.8 309.2C1719.3 296.7 1809.7 265.3 1854.8 249.7L1900 234V643H1854.8C1809.7 643 1719.3 643 1628.8 643C1538.3 643 1447.7 643 1357.2 643C1266.7 643 1176.3 643 1085.8 643C995.3 643 904.7 643 814.2 643C723.7 643 633.3 643 542.8 643C452.3 643 361.7 643 271.2 643C180.7 643 90.3 643 45.2 643H0V233.5Z" fill="#0085BF"/>
<path d="M0 355L46 371C91.1 375.9 180.7 406.3 271.2 399.5C361.7 392.7 452.3 369.3 542.8 372.2C633.3 375 723.7 404 814.2 417.8C904.7 431.7 995.3 430.3 1085.8 419.8C1176.3 409.3 1266.7 389.7 1357.2 385C1447.7 380.3 1538.3 390.7 1628.8 388.2C1719.3 385.7 1809.7 370.3 1854.8 362.7L1900 355V643H1854.8C1809.7 643 1719.3 643 1628.8 643C1538.3 643 1447.7 643 1357.2 643C1266.7 643 1176.3 643 1085.8 643C995.3 643 904.7 643 814.2 643C723.7 643 633.3 643 542.8 643C452.3 643 361.7 643 271.2 643C180.7 643 90.3 643 45.2 643H0V355Z" fill="#00B0DD"/>
<path d="M0 502L21.5 510.5L45.2 514.3C90.3 513.7 180.7 512.3 271.2 514.7C361.7 517 452.3 523 542.8 527.7C633.3 532.3 723.7 535.7 814.2 528.7C904.7 521.7 995.3 504.3 1085.8 497.5C1176.3 490.7 1266.7 494.3 1357.2 501.3C1447.7 508.3 1538.3 518.7 1628.8 519.3C1719.3 520 1809.7 511 1854.8 506.5L1900 502V643H1854.8C1809.7 643 1719.3 643 1628.8 643C1538.3 643 1447.7 643 1357.2 643C1266.7 643 1176.3 643 1085.8 643C995.3 643 904.7 643 814.2 643C723.7 643 633.3 643 542.8 643C452.3 643 361.7 643 271.2 643C180.7 643 90.3 643 45.2 643H0V502Z" fill="#05DBF2"/>
</g>
<defs>
<clipPath id="clip0_129_51">
<rect width="1900" height="642" fill="white"/>
</clipPath>
</defs>
</svg>
