<svg width="24" height="21" viewBox="0 0 24 21" fill="none" xmlns="http://www.w3.org/2000/svg">
<path d="M5.76537 1.93384C8.28762 3.79116 11.0006 7.55704 11.9966 9.57803C12.9928 7.55719 15.7056 3.79113 18.2279 1.93384C20.0478 0.593671 22.9966 -0.443277 22.9966 2.85635C22.9966 3.51532 22.6114 8.39211 22.3855 9.18384C21.6002 11.9364 18.7387 12.6385 16.1933 12.2136C20.6426 12.9563 21.7744 15.4167 19.33 17.877C14.6877 22.5496 12.6576 16.7046 12.1372 15.2069C12.0419 14.9323 11.9972 14.8039 11.9966 14.9131C11.9959 14.8039 11.9513 14.9323 11.8559 15.2069C11.3358 16.7046 9.30574 22.5497 4.66313 17.877C2.21871 15.4167 3.35053 12.9562 7.79989 12.2136C5.25443 12.6385 2.39285 11.9364 1.60769 9.18384C1.38176 8.39204 0.996582 3.51525 0.996582 2.85635C0.996582 -0.443277 3.9454 0.593671 5.76524 1.93384H5.76537Z" stroke="white"/>
</svg>
