<svg width="25" height="25" viewBox="0 0 25 25" fill="none" xmlns="http://www.w3.org/2000/svg">
<g clip-path="url(#clip0_1511_1249)">
<path d="M15.6281 4.16669C15.8979 4.16669 16.2365 4.23752 16.5083 4.30419C17.4562 4.53335 18.5802 4.81773 19.3781 5.41669C20.1208 5.97398 20.6979 6.94585 21.1437 7.93335C22.0708 9.99065 22.7156 12.7334 22.9385 14.8188C23.0448 15.8084 23.0708 16.8042 22.8802 17.474C22.7865 17.8031 22.5833 18.0511 22.4406 18.2031C22.0052 18.6646 21.4448 19.0094 20.8906 19.3229L20.6156 19.4781C20.4345 19.5789 20.2522 19.6775 20.0687 19.774L19.525 20.0552L18.7781 20.4271L18.1771 20.7229C17.9571 20.8331 17.7053 20.8619 17.4662 20.8042C17.227 20.7464 17.016 20.606 16.8706 20.4076C16.7251 20.2092 16.6545 19.9657 16.6713 19.7203C16.6882 19.4749 16.7913 19.2434 16.9625 19.0667L16.5104 18.1625C15.2105 18.5576 13.8586 18.7556 12.5 18.75C11.0729 18.75 9.71145 18.5417 8.48958 18.1625L8.03854 19.0646C8.21037 19.241 8.31417 19.4725 8.33152 19.7181C8.34887 19.9637 8.27865 20.2076 8.13332 20.4063C7.98798 20.6051 7.77694 20.746 7.53763 20.8039C7.29831 20.8619 7.04621 20.8332 6.82604 20.7229L6.25937 20.4417C5.6302 20.1313 5.00104 19.8209 4.38854 19.4781C3.74895 19.1209 3.07083 18.7406 2.56354 18.2021C2.36109 17.9975 2.21039 17.7475 2.12395 17.4729C1.93229 16.8042 1.95937 15.8094 2.06458 14.8188C2.28749 12.7334 2.93229 9.99065 3.86041 7.93335C4.3052 6.94585 4.88229 5.97398 5.62499 5.41669C6.42291 4.81773 7.54687 4.53335 8.49479 4.30419C8.76666 4.23752 9.10416 4.16669 9.375 4.16669C9.52481 4.16656 9.67289 4.19875 9.80913 4.26105C9.94537 4.32336 10.0666 4.41432 10.1645 4.52773C10.2623 4.64114 10.3346 4.77433 10.3763 4.91822C10.4181 5.0621 10.4283 5.21329 10.4062 5.36148C11.0994 5.25891 11.7993 5.20773 12.5 5.20835C13.2198 5.20835 13.9229 5.26044 14.5979 5.36252C14.5757 5.21426 14.5858 5.06295 14.6275 4.91894C14.6691 4.77493 14.7414 4.6416 14.8393 4.52807C14.9372 4.41454 15.0584 4.32348 15.1947 4.26111C15.3311 4.19874 15.4782 4.16654 15.6281 4.16669ZM17.0385 6.62815C16.8823 6.57815 16.8448 6.60002 16.7885 6.69377L16.724 6.81044C16.5556 7.09904 16.3 7.32676 15.9939 7.4608C15.6878 7.59483 15.3471 7.62826 15.0208 7.55627C14.1924 7.37843 13.3473 7.28974 12.5 7.29169C11.6125 7.29169 10.7635 7.38544 9.97916 7.55627C9.65288 7.62826 9.31217 7.59483 9.0061 7.4608C8.70003 7.32676 8.44441 7.09904 8.27604 6.81044L8.21145 6.69481C8.15624 6.60106 8.11875 6.57919 7.96354 6.62815C7.5927 6.74585 7.19479 6.8719 6.87499 7.08335C6.57604 7.30731 6.17708 7.8646 5.75937 8.79065C4.96145 10.5584 4.33645 13.1698 4.13645 15.0406C4.09479 15.4354 4.07291 15.774 4.0677 16.0531V16.3594C4.07187 16.5448 4.08541 16.6917 4.10416 16.7979C4.36874 17.0573 4.69583 17.2604 5.02395 17.4469L5.73437 17.8396L6.19895 18.0844L6.57812 17.3261C6.39454 17.155 6.27888 16.9234 6.25239 16.6739C6.2259 16.4244 6.29036 16.1737 6.43393 15.9679C6.5775 15.7622 6.79052 15.6151 7.03384 15.5538C7.27716 15.4926 7.53442 15.5212 7.75833 15.6344C9.025 16.2709 10.6729 16.6667 12.5 16.6667C14.326 16.6667 15.975 16.2688 17.2417 15.6354C17.456 15.5281 17.7008 15.4979 17.9348 15.55C18.1688 15.6022 18.3777 15.7335 18.5261 15.9217C18.6746 16.1099 18.7536 16.3436 18.7498 16.5833C18.746 16.823 18.6596 17.0541 18.5052 17.2375L18.4219 17.3261L18.801 18.0865C19.1115 17.9261 19.4229 17.7563 19.7354 17.5834C20.1417 17.3584 20.5687 17.1219 20.899 16.799C20.9177 16.6917 20.9302 16.5448 20.9354 16.3594V16.0531C20.927 15.7145 20.904 15.3763 20.8667 15.0396C20.6667 13.1698 20.0417 10.5584 19.2437 8.7896C18.8271 7.8646 18.4271 7.30731 18.1292 7.08335C17.8083 6.8719 17.4104 6.74585 17.0385 6.62815ZM9.11458 10.9375C9.59805 10.9375 10.0617 11.1296 10.4036 11.4714C10.7454 11.8133 10.9375 12.277 10.9375 12.7604C10.9375 13.2439 10.7454 13.7076 10.4036 14.0494C10.0617 14.3913 9.59805 14.5834 9.11458 14.5834C8.63111 14.5834 8.16744 14.3913 7.82558 14.0494C7.48372 13.7076 7.29166 13.2439 7.29166 12.7604C7.29166 12.277 7.48372 11.8133 7.82558 11.4714C8.16744 11.1296 8.63111 10.9375 9.11458 10.9375ZM15.8854 10.9375C16.3689 10.9375 16.8325 11.1296 17.1744 11.4714C17.5163 11.8133 17.7083 12.277 17.7083 12.7604C17.7083 13.2439 17.5163 13.7076 17.1744 14.0494C16.8325 14.3913 16.3689 14.5834 15.8854 14.5834C15.4019 14.5834 14.9383 14.3913 14.5964 14.0494C14.2546 13.7076 14.0625 13.2439 14.0625 12.7604C14.0625 12.277 14.2546 11.8133 14.5964 11.4714C14.9383 11.1296 15.4019 10.9375 15.8854 10.9375Z" fill="white"/>
</g>
<defs>
<clipPath id="clip0_1511_1249">
<rect width="25" height="25" fill="white"/>
</clipPath>
</defs>
</svg>
