<svg width="62" height="63" viewBox="0 0 62 63" fill="none" xmlns="http://www.w3.org/2000/svg">
<path fill-rule="evenodd" clip-rule="evenodd" d="M34.379 37.0125C34.844 37.611 35.402 38.2882 35.402 38.2882C38.8275 38.178 40.145 35.8942 40.145 35.8942C40.145 30.8227 37.913 26.712 37.913 26.712C35.681 25.011 33.5575 25.0582 33.5575 25.0582L33.3405 25.3102C35.9755 26.1292 37.2 27.3105 37.2 27.3105C35.588 26.4128 34.007 25.9718 32.5345 25.7985C31.4185 25.6725 30.349 25.704 29.4035 25.83C29.3223 25.83 29.2529 25.842 29.1747 25.8555L29.14 25.8615C28.5975 25.9087 27.28 26.1135 25.6215 26.8538C25.048 27.1215 24.707 27.3105 24.707 27.3105C24.707 27.3105 25.9935 26.0662 28.7835 25.2473L28.6285 25.0582C28.6285 25.0582 26.505 25.011 24.273 26.712C24.273 26.712 22.041 30.8227 22.041 35.8942C22.041 35.8942 23.343 38.178 26.7685 38.2882C26.7685 38.2882 27.342 37.5795 27.807 36.981C25.8385 36.3825 25.0945 35.1225 25.0945 35.1225C25.0945 35.1225 25.2495 35.2327 25.5285 35.3902C25.544 35.406 25.5595 35.4218 25.5905 35.4375C25.6138 35.4533 25.637 35.4651 25.6603 35.4769C25.6835 35.4887 25.7068 35.5005 25.73 35.5162C26.1175 35.7368 26.505 35.91 26.8615 36.0517C27.497 36.3037 28.2565 36.5557 29.14 36.729C30.3025 36.9495 31.6665 37.0283 33.1545 36.7447C33.883 36.6188 34.627 36.3982 35.402 36.0675C35.9445 35.8627 36.549 35.5635 37.1845 35.1382C37.1845 35.1382 36.4095 36.4297 34.379 37.0125ZM26.6135 32.6813C26.6135 31.7205 27.311 30.933 28.1945 30.933C29.078 30.933 29.791 31.7205 29.7755 32.6813C29.7755 33.642 29.078 34.4295 28.1945 34.4295C27.3265 34.4295 26.6135 33.642 26.6135 32.6813ZM32.271 32.6813C32.271 31.7205 32.9685 30.933 33.852 30.933C34.7355 30.933 35.433 31.7205 35.433 32.6813C35.433 33.642 34.7355 34.4295 33.852 34.4295C32.984 34.4295 32.271 33.642 32.271 32.6813Z" fill="white"/>
<path fill-rule="evenodd" clip-rule="evenodd" d="M52.3125 0C57.6628 0 62 4.4072 62 9.84375V53.1562C62 58.5928 57.6628 63 52.3125 63H9.6875C4.33724 63 0 58.5928 0 53.1562V9.84375C0 4.4072 4.33724 0 9.6875 0H52.3125ZM20.615 17.7188H41.385C43.1365 17.7188 44.5625 19.1678 44.5625 20.9632V49.2188L41.23 46.2262L39.3545 44.4622L37.3705 42.588L38.192 45.5017H20.615C18.8635 45.5017 17.4375 44.0527 17.4375 42.2573V20.9632C17.4375 19.1678 18.8635 17.7188 20.615 17.7188Z" fill="white"/>
</svg>
