<svg width="62" height="63" viewBox="0 0 62 63" fill="none" xmlns="http://www.w3.org/2000/svg">
<path fill-rule="evenodd" clip-rule="evenodd" d="M0 9.84375C0 4.4072 4.33724 0 9.6875 0H52.3125C57.6628 0 62 4.4072 62 9.84375V53.1562C62 58.5928 57.6628 63 52.3125 63H9.6875C4.33724 63 0 58.5928 0 53.1562V9.84375ZM15.5 31.8298C15.5 23.1601 22.4204 16.128 30.9526 16.128C39.4847 16.128 46.4052 23.1601 46.5 31.8298C46.5 38.7656 42.1391 44.6418 35.977 46.761C35.2187 46.8574 34.9342 46.3757 34.9342 45.9904V41.6555C34.9342 40.2106 34.4603 39.2473 33.8915 38.7656C37.3043 38.3803 40.9067 37.128 40.9067 31.0592C40.9067 29.3253 40.2431 27.8803 39.2952 26.8207C39.3026 26.7904 39.313 26.7524 39.3254 26.7071C39.4705 26.1751 39.8916 24.6313 39.1055 22.6785C39.1055 22.6785 37.7783 22.2931 34.8394 24.3161C33.6071 24.0271 32.2798 23.8344 30.9526 23.8344C29.6254 23.8344 28.2982 23.9308 27.0658 24.3161C24.1269 22.2931 22.7997 22.6785 22.7997 22.6785C21.9618 24.7596 22.4953 26.3763 22.6046 26.7074L22.6101 26.7243C21.5672 27.8803 20.9984 29.2289 20.9984 30.9629C20.9984 37.0317 24.601 38.3803 28.0138 38.7656C27.6346 39.1509 27.1606 39.8253 27.0658 40.8849C26.2125 41.2702 24.0321 41.9445 22.6101 39.5363C22.6101 39.5363 21.7569 37.995 20.24 37.8986C20.24 37.8986 18.7233 37.8986 20.1453 38.8619C20.1453 38.8619 21.1881 39.3436 21.8516 41.1739C21.8516 41.1739 22.7997 44.2564 27.0658 43.2931V45.9904C27.0658 46.3757 26.7813 46.8574 26.023 46.761C19.9556 44.6418 15.5 38.7656 15.5 31.8298Z" fill="black"/>
</svg>
