<svg width="20" height="21" viewBox="0 0 20 21" fill="none" xmlns="http://www.w3.org/2000/svg">
<g clip-path="url(#clip0_1511_1255)">
<path d="M3.773 16.66C2.953 15.6 2.71 15.254 2.523 14.915L2.484 14.842C2.44241 14.7672 2.40174 14.6918 2.362 14.616C2.31042 14.5184 2.2637 14.4182 2.222 14.316C2.048 13.884 2.015 13.503 2.292 13.151C2.777 12.531 3.565 12.706 4.229 13.274C4.657 13.639 5.295 14.294 5.684 14.76C5.939 15.065 6.404 15.381 6.744 15.494C6.77674 15.5051 6.81014 15.5141 6.844 15.521L7.022 14.961C6.35597 14.7306 5.72653 14.4056 5.153 13.996C3.853 13.06 2.723 11.223 2.82 9.822C2.88 8.937 3.18 8.069 3.71 7.226C3.66555 6.81477 3.64119 6.40161 3.637 5.988C3.637 5.499 3.797 4.968 4.104 4.385C4.1587 4.28145 4.23993 4.19429 4.33938 4.13244C4.43883 4.07059 4.55293 4.03627 4.67 4.033C5.20795 4.01592 5.74568 4.07313 6.268 4.203C6.723 4.318 7.204 4.52 7.713 4.808C8.475 4.65 9.213 4.57 9.929 4.57C10.646 4.57 11.392 4.65 12.168 4.809C12.83 4.438 13.412 4.186 13.92 4.054C14.58 3.883 15.174 3.934 15.663 4.236C15.7304 4.27772 15.7896 4.33124 15.838 4.394C16.138 4.782 16.304 5.297 16.358 5.932C16.4 6.416 16.385 6.897 16.313 7.374C16.746 8.025 17.028 8.857 17.167 9.864C17.393 11.508 16.642 13.201 15.449 14.176C14.893 14.63 14.129 14.986 13.155 15.256C13.217 15.472 13.261 15.687 13.287 15.902C13.331 16.256 13.362 17.206 13.383 18.792C14.485 18.218 15.34 17.652 15.948 17.097C16.983 16.154 17.763 14.816 18.271 13.262C18.696 11.962 18.778 10.865 18.568 9.656C18.311 8.186 17.941 6.987 17.384 6.025C16.732 4.899 15.692 3.835 14.448 3.057C13.258 2.311 11.328 1.812 9.808 1.812C8.212 1.812 6.426 2.329 5.071 3.285C3.753 4.215 2.661 5.615 2.028 6.988C1.527 8.076 1.321 9.235 1.321 10.946C1.321 12.332 1.825 14.016 2.419 15.07C2.888 15.902 3.554 16.69 4.533 17.546C5.026 17.978 5.723 18.409 6.623 18.835V18.412C5.418 18.132 4.46 17.548 3.773 16.66ZM3.416 13.738C3.41602 13.7363 3.41602 13.7347 3.416 13.733V13.738ZM4.821 15.86C5.391 16.599 6.232 17.052 7.381 17.22C7.53721 17.2428 7.68002 17.321 7.78337 17.4403C7.88672 17.5596 7.94373 17.7121 7.944 17.87V19.843C7.94341 19.9513 7.9162 20.0577 7.86475 20.153C7.81331 20.2483 7.73921 20.3294 7.649 20.3893C7.55879 20.4492 7.45523 20.486 7.34746 20.4964C7.23968 20.5068 7.131 20.4905 7.031 20.449C5.556 19.843 4.434 19.209 3.66 18.532C2.574 17.582 1.813 16.68 1.266 15.712C0.568 14.471 0 12.572 0 10.945C0 9.06 0.238 7.72 0.827 6.442C1.551 4.87 2.786 3.288 4.307 2.215C5.894 1.095 7.947 0.5 9.806 0.5C11.566 0.5 13.739 1.062 15.151 1.946C16.575 2.838 17.767 4.057 18.527 5.37C19.176 6.489 19.588 7.823 19.868 9.432C20.116 10.853 20.018 12.166 19.527 13.667C18.953 15.42 18.06 16.952 16.841 18.064C15.959 18.868 14.685 19.655 13.014 20.437C12.9141 20.4842 12.8039 20.5056 12.6935 20.4992C12.5832 20.4928 12.4762 20.4587 12.3825 20.4002C12.2887 20.3417 12.2111 20.2605 12.1569 20.1642C12.1026 20.0679 12.0735 19.9595 12.072 19.849C12.052 17.7 12.019 16.415 11.975 16.061C11.9289 15.7177 11.8287 15.3839 11.678 15.072C11.6361 14.9824 11.615 14.8846 11.6163 14.7857C11.6176 14.6868 11.6412 14.5895 11.6855 14.5011C11.7298 14.4127 11.7935 14.3355 11.8718 14.2752C11.9502 14.2149 12.0412 14.1731 12.138 14.153C13.282 13.91 14.106 13.573 14.608 13.163C15.463 12.464 16.018 11.213 15.857 10.043C15.729 9.117 15.47 8.417 15.093 7.935C15.0349 7.86102 14.9935 7.77536 14.9716 7.68388C14.9496 7.59241 14.9477 7.49728 14.966 7.405C15.056 6.955 15.081 6.502 15.041 6.043C15.013 5.717 14.949 5.471 14.858 5.301C14.713 5.253 14.517 5.255 14.252 5.324C13.822 5.435 13.272 5.684 12.612 6.069C12.4667 6.15425 12.2944 6.18106 12.13 6.144C11.4079 5.97593 10.6694 5.8884 9.928 5.883C9.235 5.883 8.508 5.969 7.749 6.143C7.58096 6.18154 7.40453 6.15321 7.257 6.064C6.767 5.768 6.327 5.572 5.943 5.476C5.673 5.408 5.393 5.366 5.106 5.35C5.005 5.601 4.956 5.814 4.956 5.988C4.956 6.33 4.986 6.774 5.046 7.316C5.06293 7.46986 5.02466 7.62474 4.938 7.753C4.45 8.477 4.186 9.194 4.137 9.912C4.075 10.797 4.963 12.239 5.927 12.933C6.522 13.362 7.219 13.683 8.02 13.895C8.10592 13.9175 8.18639 13.9571 8.25652 14.0116C8.32665 14.0661 8.38499 14.1343 8.428 14.212C8.47101 14.2897 8.4978 14.3753 8.50674 14.4636C8.51568 14.552 8.50658 14.6413 8.48 14.726L7.977 16.313C7.94694 16.4076 7.89589 16.4941 7.82766 16.5661C7.75943 16.6382 7.67579 16.6939 7.583 16.729C7.182 16.881 6.753 16.881 6.323 16.739C5.751 16.549 5.079 16.092 4.666 15.598C4.55134 15.4618 4.4333 15.3284 4.312 15.198C4.448 15.378 4.615 15.594 4.821 15.86Z" fill="white"/>
</g>
<defs>
<clipPath id="clip0_1511_1255">
<rect width="20" height="20" fill="white" transform="translate(0 0.5)"/>
</clipPath>
</defs>
</svg>
