<svg width="27" height="26" viewBox="0 0 27 26" fill="none" xmlns="http://www.w3.org/2000/svg">
<path d="M1 4.52942V4.52942C1 4.03765 1 3.79177 1.02877 3.58553C1.21399 2.25773 2.25772 1.21399 3.58553 1.02877C3.79177 1 4.03765 1 4.52941 1L23.6111 1C24.0825 1 24.3182 1 24.4647 1.14645C24.6111 1.29289 24.6111 1.5314 24.6111 2.0084V2.0084C24.6111 4.87045 24.6111 6.30147 23.7324 7.18015C22.8538 8.05882 21.4395 8.05882 18.6111 8.05883L17.6667 8.05883M1 4.52942V4.52942C1 5.02118 1 5.26706 1.02877 5.4733C1.21399 6.8011 2.25772 7.84484 3.58553 8.03006C3.79177 8.05883 4.03765 8.05883 4.52941 8.05883L24 8.05882C24.9428 8.05882 25.4142 8.05882 25.7071 8.35172C26 8.64461 26 9.11602 26 10.0588L26 13.7059M1 4.52942L1 21C1 22.8856 1 23.8284 1.58579 24.4142C2.17158 25 3.11438 25 5 25L24 25C24.9428 25 25.4142 25 25.7071 24.7071C26 24.4142 26 23.9428 26 23L26 19.3529M26 19.3529L19.6667 19.3529C18.7239 19.3529 18.2525 19.3529 17.9596 19.06C17.6667 18.7672 17.6667 18.2958 17.6667 17.3529L17.6667 15.7059C17.6667 14.7631 17.6667 14.2917 17.9596 13.9988C18.2524 13.7059 18.7239 13.7059 19.6667 13.7059L26 13.7059M26 19.3529L26 13.7059" stroke="#95CADC" stroke-width="2"/>
</svg>
