<svg width="413" height="345" viewBox="0 0 413 345" fill="none" xmlns="http://www.w3.org/2000/svg">
<path opacity="0.05" d="M390.296 393H1.08115C0.484266 393 0 392.517 0 391.921V91.9374C0 91.6511 0.114028 91.3767 0.316744 91.1744L117.812 -26.1015C118.014 -26.3038 118.29 -26.4176 118.576 -26.4176H154.955C180.606 -40.5378 209.639 -48 238.935 -48C334.915 -48 413 29.9386 413 125.738C413 154.979 405.523 183.957 391.377 209.559V391.921C391.377 392.517 390.893 393 390.296 393ZM2.1623 390.842H389.215V209.281C389.215 209.098 389.261 208.918 389.35 208.758C403.408 183.416 410.838 154.708 410.838 125.738C410.838 31.1287 333.723 -45.8418 238.935 -45.8418C209.911 -45.8418 181.149 -38.4253 155.758 -24.3943C155.597 -24.3057 155.417 -24.2594 155.234 -24.2594H119.024L2.1623 92.3842V390.842Z" fill="url(#paint0_linear_1006_1879)"/>
<path opacity="0.1" d="M357.315 364H28.1755C27.5265 364 27 363.471 27 362.819V101.426C27 101.113 27.124 100.813 27.3444 100.591L127.549 -0.0435944C127.77 -0.264944 128.069 -0.389452 128.38 -0.389452H161.483C184.842 -15.8366 211.903 -24 239.765 -24C318.193 -24 382 40.0793 382 118.844C382 146.825 373.872 174.002 358.49 197.46V362.819C358.49 363.471 357.964 364 357.315 364ZM29.351 361.639H356.139V197.105C356.139 196.873 356.207 196.647 356.334 196.453C371.587 173.315 379.649 146.478 379.649 118.844C379.649 41.3813 316.897 -21.6389 239.765 -21.6389C212.248 -21.6389 185.525 -13.5424 162.485 1.77562C162.292 1.90358 162.067 1.9716 161.836 1.9716H128.867L29.351 101.915V361.639Z" fill="url(#paint1_linear_1006_1879)"/>
<path opacity="0.2" d="M328.497 338H59.262C58.5653 338 58 337.434 58 336.737V116.558C58 116.223 58.1331 115.901 58.3697 115.664L141.309 32.6373C141.546 32.4004 141.867 32.2672 142.202 32.2672H174.044C193.846 15.9706 218.799 7 244.361 7C305.368 7 355 56.6843 355 117.754C355 143.343 346.038 168.322 329.759 188.144V336.737C329.759 337.434 329.194 338 328.497 338ZM60.5241 335.473H327.235V187.69C327.235 187.395 327.338 187.11 327.526 186.884C343.615 167.458 352.476 142.908 352.476 117.754C352.476 58.0776 303.976 9.52672 244.361 9.52672C219.235 9.52672 194.709 18.397 175.303 34.5031C175.077 34.6911 174.792 34.7939 174.498 34.7939H142.724L60.5241 117.081V335.473Z" fill="url(#paint2_linear_1006_1879)"/>
<path opacity="0.4" d="M302.269 315H83.3681C82.6128 315 82 314.388 82 313.634V127.107C82 126.745 82.1443 126.398 82.4008 126.141L150.941 57.7164C151.198 57.4603 151.546 57.3163 151.908 57.3163H185.756C201.59 39.9484 224.074 30 247.544 30C293.562 30 331 67.375 331 113.315C331 136.745 321.035 159.191 303.637 174.998V313.634C303.637 314.388 303.025 315 302.269 315ZM84.7363 312.268H300.901V174.391C300.901 174.003 301.067 173.634 301.355 173.375C318.456 158.064 328.264 136.173 328.264 113.315C328.264 68.8808 292.053 32.7316 247.544 32.7316C224.646 32.7316 202.718 42.5226 187.383 59.594C187.123 59.883 186.752 60.0479 186.364 60.0479H152.475L84.7363 127.673V312.268Z" fill="url(#paint3_linear_1006_1879)"/>
<path opacity="0.6" d="M281.5 299H101.5C100.672 299 100 298.328 100 297.5V135.074C100 134.676 100.158 134.294 100.439 134.013L158.013 76.4395C158.294 76.1582 158.676 76 159.073 76H198.668C209.716 57.4722 229.878 46 251.5 46C285.411 46 313 73.5889 313 107.5C313 129.122 301.527 149.284 283 160.332V297.5C283 298.328 282.328 299 281.5 299ZM103 296H280V159.473C280 158.937 280.286 158.441 280.75 158.173C298.792 147.761 310 128.344 310 107.5C310 75.2432 283.757 49 251.5 49C230.656 49 211.239 60.208 200.826 78.25C200.559 78.7139 200.063 79 199.527 79H159.694L103 135.695V296Z" fill="url(#paint4_linear_1006_1879)"/>
<path opacity="0.8" d="M264.679 285H116.587C115.711 285 115 284.29 115 283.415V141.716C115 141.296 115.167 140.893 115.465 140.596L163.973 92.1544C164.271 91.8573 164.674 91.6901 165.095 91.6901H211.916C217.319 72.9685 234.492 60 254.101 60C278.307 60 298 79.6655 298 103.838C298 123.421 285.014 140.57 266.266 145.964V283.415C266.266 284.29 265.555 285 264.679 285ZM118.173 281.831H263.092V144.755C263.092 144.032 263.582 143.401 264.283 143.221C282.266 138.582 294.827 122.387 294.827 103.838C294.827 81.413 276.557 63.169 254.101 63.169C235.527 63.169 219.309 75.712 214.664 93.6708C214.483 94.3702 213.851 94.8592 213.128 94.8592H165.752L118.173 142.372V281.831Z" fill="url(#paint5_linear_1006_1879)"/>
<path d="M227.5 107.5C227.5 120.733 238.267 131.5 251.5 131.5C264.733 131.5 275.5 120.733 275.5 107.5C275.5 94.2666 264.733 83.5 251.5 83.5C238.267 83.5 227.5 94.2666 227.5 107.5ZM272.5 107.5C272.5 119.08 263.079 128.5 251.5 128.5C239.921 128.5 230.5 119.08 230.5 107.5C230.5 95.9204 239.921 86.5 251.5 86.5C263.079 86.5 272.5 95.9204 272.5 107.5ZM239 177.5C239 178.329 238.328 179 237.5 179H171.5C170.672 179 170 178.329 170 177.5C170 176.671 170.672 176 171.5 176H237.5C238.328 176 239 176.671 239 177.5ZM239 197.5C239 198.328 238.328 199 237.5 199H171.5C170.672 199 170 198.328 170 197.5C170 196.672 170.672 196 171.5 196H237.5C238.328 196 239 196.672 239 197.5ZM239 217.5C239 218.328 238.328 219 237.5 219H171.5C170.672 219 170 218.328 170 217.5C170 216.672 170.672 216 171.5 216H237.5C238.328 216 239 216.672 239 217.5ZM157.5 170H145.5C144.672 170 144 170.671 144 171.5V183.5C144 184.329 144.672 185 145.5 185H157.5C158.328 185 159 184.329 159 183.5V171.5C159 170.671 158.328 170 157.5 170ZM156 182H147V173H156V182ZM157.5 190H145.5C144.672 190 144 190.672 144 191.5V203.5C144 204.328 144.672 205 145.5 205H157.5C158.328 205 159 204.328 159 203.5V191.5C159 190.672 158.328 190 157.5 190ZM156 202H147V193H156V202ZM157.5 210H145.5C144.672 210 144 210.672 144 211.5V223.5C144 224.328 144.672 225 145.5 225H157.5C158.328 225 159 224.328 159 223.5V211.5C159 210.672 158.328 210 157.5 210ZM156 222H147V213H156V222ZM251.499 88.519C250.157 88.5195 248.955 89.2671 248.362 90.4697L244.743 97.8018C244.67 97.9502 244.529 98.0527 244.366 98.0767L236.273 99.2524C234.946 99.4453 233.863 100.357 233.448 101.634C233.033 102.91 233.373 104.285 234.334 105.223L240.189 110.931C240.308 111.045 240.361 111.211 240.333 111.373L238.951 119.433C238.725 120.755 239.258 122.067 240.344 122.856C240.957 123.302 241.675 123.528 242.397 123.528C242.953 123.528 243.513 123.394 244.029 123.122L251.268 119.317C251.414 119.241 251.588 119.241 251.732 119.317L258.971 123.122C260.158 123.746 261.569 123.645 262.655 122.856C263.742 122.068 264.276 120.756 264.05 119.433L262.667 111.373C262.639 111.211 262.692 111.045 262.811 110.931L268.666 105.223C269.627 104.286 269.967 102.911 269.552 101.635C269.138 100.358 268.055 99.4453 266.727 99.2524L258.635 98.0767C258.472 98.0527 258.331 97.9507 258.258 97.8027L254.639 90.4692C254.044 89.2661 252.842 88.519 251.5 88.519H251.499ZM251.949 91.7979L255.567 99.1299C256.077 100.164 257.062 100.879 258.203 101.045L266.295 102.221C266.562 102.26 266.663 102.451 266.699 102.562C266.734 102.672 266.766 102.885 266.572 103.074L260.717 108.782C259.892 109.586 259.516 110.744 259.71 111.88L261.093 119.939C261.139 120.206 260.987 120.36 260.894 120.429C260.8 120.496 260.607 120.592 260.367 120.467L253.129 116.662C252.11 116.126 250.893 116.125 249.872 116.661L249.871 116.662L242.633 120.467C242.393 120.593 242.202 120.497 242.107 120.429C242.013 120.36 241.862 120.206 241.908 119.939L243.29 111.88C243.484 110.744 243.108 109.586 242.283 108.782L236.428 103.075C236.234 102.885 236.266 102.672 236.302 102.561C236.338 102.451 236.438 102.26 236.705 102.221L244.798 101.045C245.937 100.88 246.922 100.165 247.433 99.1309L251.052 91.7974C251.172 91.5552 251.384 91.519 251.5 91.519C251.616 91.519 251.829 91.5552 251.949 91.7979ZM274.547 128.942C274.702 128.775 274.857 128.607 275.009 128.436C275.188 128.235 275.363 128.032 275.537 127.827C275.685 127.652 275.832 127.477 275.976 127.299C276.145 127.09 276.311 126.878 276.475 126.665C276.615 126.483 276.754 126.301 276.89 126.116C277.049 125.899 277.204 125.68 277.357 125.459C277.489 125.27 277.62 125.081 277.748 124.889C277.897 124.665 278.041 124.438 278.184 124.21C278.306 124.015 278.429 123.821 278.548 123.623C278.687 123.391 278.82 123.155 278.953 122.919C279.066 122.718 279.18 122.519 279.288 122.316C279.416 122.077 279.538 121.834 279.66 121.592C279.763 121.385 279.868 121.18 279.968 120.97C280.084 120.725 280.194 120.476 280.304 120.227C280.398 120.016 280.494 119.805 280.583 119.591C280.689 119.337 280.788 119.079 280.887 118.821C280.97 118.607 281.055 118.395 281.133 118.179C281.228 117.916 281.315 117.65 281.403 117.384C281.474 117.167 281.549 116.952 281.617 116.732C281.699 116.464 281.773 116.191 281.848 115.919C281.91 115.698 281.975 115.479 282.031 115.256C282.102 114.978 282.163 114.696 282.226 114.415C282.275 114.195 282.329 113.976 282.374 113.754C282.433 113.463 282.481 113.169 282.532 112.875C282.569 112.658 282.612 112.443 282.645 112.224C282.692 111.913 282.727 111.597 282.765 111.282C282.789 111.078 282.82 110.877 282.84 110.672C282.875 110.323 282.897 109.97 282.921 109.617C282.932 109.443 282.951 109.271 282.96 109.095C282.986 108.567 283 108.035 283 107.5C283 90.1309 268.869 76 251.5 76C250.965 76 250.433 76.014 249.905 76.0405C249.729 76.0493 249.556 76.0676 249.381 76.0793C249.029 76.1028 248.677 76.1246 248.328 76.1596C248.122 76.1803 247.92 76.2108 247.715 76.2355C247.401 76.2733 247.087 76.3082 246.776 76.3551C246.556 76.3884 246.339 76.4313 246.12 76.4691C245.828 76.5195 245.536 76.567 245.247 76.6254C245.023 76.6708 244.802 76.7252 244.58 76.7753C244.301 76.8381 244.021 76.8983 243.745 76.9685C243.52 77.0255 243.3 77.0909 243.077 77.1526C242.807 77.2278 242.536 77.3008 242.268 77.3829C242.047 77.4509 241.83 77.5265 241.611 77.5992C241.347 77.6865 241.083 77.7721 240.823 77.8661C240.604 77.9453 240.389 78.0316 240.172 78.1154C239.917 78.2138 239.663 78.311 239.411 78.4158C239.194 78.5065 238.98 78.6036 238.766 78.699C238.52 78.8079 238.274 78.916 238.032 79.0309C237.82 79.1318 237.611 79.2386 237.401 79.3442C237.162 79.4644 236.923 79.5842 236.687 79.7103C236.481 79.8206 236.278 79.9362 236.075 80.051C235.842 80.1823 235.609 80.3136 235.38 80.4506C235.18 80.5707 234.982 80.6953 234.784 80.8197C234.559 80.9612 234.335 81.1031 234.114 81.2501C233.919 81.3794 233.728 81.5126 233.536 81.6462C233.318 81.798 233.101 81.9507 232.887 82.1078C232.699 82.246 232.514 82.3876 232.33 82.5298C232.12 82.6913 231.911 82.8541 231.705 83.0208C231.524 83.1674 231.346 83.3169 231.168 83.4674C230.966 83.6389 230.765 83.8118 230.567 83.9882C230.394 84.1426 230.223 84.2994 230.054 84.4575C229.859 84.6386 229.667 84.8216 229.477 85.0075C229.311 85.1695 229.148 85.3335 228.986 85.4991C228.8 85.6895 228.617 85.8819 228.435 86.0768C228.278 86.246 228.123 86.4167 227.969 86.5894C227.792 86.7887 227.617 86.9904 227.445 87.1942C227.296 87.3706 227.148 87.548 227.003 87.7277C226.835 87.9351 226.671 88.1452 226.508 88.357C226.368 88.5402 226.228 88.7241 226.091 88.9105C225.933 89.1265 225.778 89.3452 225.625 89.5652C225.494 89.7547 225.363 89.9446 225.235 90.1371C225.086 90.3611 224.942 90.5881 224.799 90.8162C224.677 91.011 224.555 91.206 224.437 91.4036C224.298 91.6365 224.164 91.8724 224.031 92.1091C223.919 92.3087 223.806 92.5082 223.698 92.7106C223.57 92.951 223.447 93.1948 223.325 93.4389C223.222 93.6437 223.119 93.8481 223.021 94.0554C222.903 94.3038 222.791 94.5556 222.68 94.8076C222.588 95.0163 222.494 95.2242 222.406 95.4353C222.3 95.6913 222.2 95.9509 222.1 96.2103C222.018 96.4232 221.935 96.635 221.857 96.85C221.762 97.113 221.675 97.3795 221.587 97.6456C221.516 97.8623 221.442 98.0778 221.375 98.2964C221.292 98.5665 221.218 98.84 221.143 99.113C221.082 99.3328 221.018 99.5513 220.962 99.7729C220.892 100.051 220.831 100.332 220.768 100.613C220.718 100.834 220.665 101.054 220.62 101.277C220.563 101.563 220.515 101.852 220.465 102.141C220.427 102.363 220.385 102.584 220.351 102.807C220.306 103.106 220.272 103.408 220.236 103.709C220.21 103.926 220.179 104.142 220.157 104.36C220.126 104.675 220.107 104.994 220.085 105.312C220.07 105.521 220.05 105.728 220.04 105.937C220.039 105.958 220.036 105.979 220.035 106H171.5C171.4 106 171.301 106.01 171.204 106.03C171.136 106.043 171.073 106.067 171.01 106.089C170.981 106.099 170.951 106.104 170.924 106.116C170.893 106.128 170.866 106.146 170.837 106.161C170.811 106.174 170.786 106.188 170.76 106.203C170.748 106.21 170.736 106.215 170.724 106.222C170.705 106.234 170.684 106.241 170.666 106.254C170.584 106.308 170.508 106.371 170.439 106.44L130.44 146.438C130.371 146.508 130.309 146.584 130.254 146.666C130.24 146.687 130.231 146.711 130.218 146.733C130.213 146.741 130.208 146.75 130.203 146.759C130.188 146.785 130.174 146.81 130.161 146.837C130.146 146.866 130.128 146.893 130.116 146.923C130.103 146.955 130.097 146.988 130.086 147.02C130.065 147.08 130.043 147.14 130.03 147.203C130.03 147.205 130.029 147.206 130.029 147.207C130.029 147.208 130.029 147.208 130.029 147.208C130.01 147.304 130 147.401 130 147.5V267.5C130 268.328 130.672 269 131.5 269H251.5C252.328 269 253 268.328 253 267.5V138.965C253.021 138.964 253.042 138.961 253.063 138.96C253.272 138.95 253.479 138.93 253.688 138.915C254.006 138.893 254.325 138.874 254.64 138.843C254.857 138.821 255.071 138.79 255.286 138.764C255.589 138.728 255.893 138.694 256.194 138.649C256.415 138.616 256.632 138.574 256.851 138.536C257.143 138.486 257.436 138.438 257.725 138.38C257.945 138.335 258.162 138.283 258.381 138.234C258.664 138.17 258.948 138.109 259.229 138.038C259.448 137.982 259.664 137.919 259.881 137.859C260.157 137.783 260.433 137.708 260.705 137.625C260.922 137.558 261.135 137.485 261.35 137.414C261.618 137.326 261.886 137.238 262.151 137.142C262.365 137.066 262.575 136.983 262.786 136.901C263.047 136.801 263.308 136.7 263.566 136.593C263.776 136.506 263.982 136.413 264.189 136.322C264.443 136.21 264.696 136.097 264.946 135.979C265.152 135.881 265.355 135.779 265.558 135.677C265.804 135.554 266.049 135.43 266.291 135.301C266.492 135.194 266.69 135.082 266.888 134.97C267.126 134.836 267.364 134.702 267.598 134.562C267.794 134.445 267.987 134.324 268.18 134.203C268.41 134.059 268.64 133.913 268.866 133.763C269.056 133.637 269.243 133.508 269.431 133.378C269.653 133.223 269.874 133.067 270.093 132.906C270.276 132.772 270.458 132.634 270.638 132.496C270.853 132.331 271.066 132.164 271.277 131.993C271.453 131.851 271.628 131.706 271.801 131.559C272.008 131.384 272.213 131.207 272.415 131.027C272.585 130.876 272.753 130.723 272.919 130.569C273.117 130.385 273.312 130.199 273.505 130.01C273.668 129.851 273.829 129.69 273.989 129.527C274.177 129.335 274.363 129.139 274.547 128.942ZM280 107.5C280 123.215 267.215 136 251.5 136C235.785 136 223 123.215 223 107.5C223 91.7852 235.785 79 251.5 79C267.215 79 280 91.7852 280 107.5ZM170 111.121V146H135.121L170 111.121ZM250 266H133V149H171.5C172.328 149 173 148.329 173 147.5V109H220.035C220.036 109.021 220.039 109.042 220.04 109.064C220.048 109.241 220.066 109.416 220.077 109.593C220.1 109.936 220.122 110.279 220.156 110.62C220.175 110.821 220.203 111.02 220.227 111.22C220.264 111.531 220.3 111.843 220.346 112.152C220.377 112.363 220.416 112.572 220.452 112.782C220.502 113.077 220.551 113.372 220.61 113.664C220.652 113.876 220.7 114.086 220.747 114.296C220.81 114.582 220.873 114.868 220.944 115.151C220.997 115.362 221.055 115.571 221.112 115.78C221.188 116.059 221.266 116.336 221.349 116.612C221.412 116.819 221.478 117.025 221.545 117.231C221.634 117.503 221.725 117.775 221.821 118.045C221.894 118.248 221.969 118.449 222.045 118.65C222.147 118.918 222.251 119.184 222.36 119.448C222.441 119.645 222.524 119.841 222.609 120.036C222.724 120.299 222.842 120.559 222.963 120.818C223.053 121.01 223.143 121.2 223.237 121.39C223.364 121.648 223.496 121.903 223.63 122.157C223.727 122.341 223.824 122.524 223.924 122.706C224.066 122.961 224.212 123.212 224.361 123.463C224.463 123.637 224.565 123.812 224.671 123.984C224.828 124.238 224.99 124.487 225.153 124.736C225.26 124.899 225.366 125.063 225.476 125.224C225.65 125.48 225.832 125.73 226.014 125.98C226.121 126.127 226.225 126.276 226.334 126.422C226.534 126.687 226.742 126.946 226.95 127.205C227.05 127.329 227.146 127.455 227.247 127.578C227.493 127.874 227.747 128.163 228.003 128.45C228.074 128.529 228.141 128.611 228.212 128.689C228.879 129.421 229.579 130.122 230.312 130.788C230.389 130.859 230.469 130.925 230.547 130.994C230.835 131.251 231.125 131.506 231.423 131.753C231.545 131.854 231.672 131.951 231.795 132.05C232.054 132.258 232.312 132.465 232.577 132.665C232.724 132.775 232.874 132.88 233.022 132.988C233.271 133.169 233.521 133.35 233.776 133.524C233.937 133.634 234.101 133.74 234.264 133.847C234.513 134.01 234.762 134.172 235.016 134.329C235.188 134.435 235.363 134.537 235.537 134.64C235.788 134.788 236.039 134.934 236.294 135.075C236.476 135.176 236.66 135.273 236.844 135.37C237.097 135.504 237.352 135.636 237.609 135.763C237.799 135.857 237.991 135.947 238.184 136.038C238.441 136.158 238.701 136.276 238.962 136.39C239.158 136.476 239.355 136.559 239.553 136.64C239.817 136.749 240.082 136.853 240.349 136.954C240.551 137.031 240.753 137.107 240.957 137.179C241.225 137.275 241.496 137.366 241.768 137.454C241.974 137.521 242.18 137.588 242.389 137.651C242.664 137.735 242.941 137.812 243.219 137.888C243.429 137.945 243.638 138.003 243.85 138.056C244.132 138.127 244.418 138.19 244.703 138.253C244.914 138.3 245.123 138.348 245.335 138.39C245.628 138.449 245.924 138.499 246.22 138.549C246.429 138.584 246.637 138.623 246.848 138.654C247.157 138.7 247.468 138.736 247.78 138.773C247.98 138.797 248.179 138.825 248.38 138.844C248.721 138.878 249.064 138.9 249.407 138.923C249.584 138.934 249.759 138.952 249.936 138.96C249.958 138.961 249.979 138.964 250 138.965V266Z" fill="url(#paint6_linear_1006_1879)"/>
<defs>
<linearGradient id="paint0_linear_1006_1879" x1="37.3064" y1="54.2525" x2="383.066" y2="400.663" gradientUnits="userSpaceOnUse">
<stop stop-color="#00E009"/>
<stop offset="0.489583" stop-color="#FFD600"/>
<stop offset="1" stop-color="#FF2828"/>
</linearGradient>
<linearGradient id="paint1_linear_1006_1879" x1="59.0672" y1="65.9637" x2="363.204" y2="363.658" gradientUnits="userSpaceOnUse">
<stop stop-color="#00E009"/>
<stop offset="0.489583" stop-color="#FFD600"/>
<stop offset="1" stop-color="#FF2828"/>
</linearGradient>
<linearGradient id="paint2_linear_1006_1879" x1="84.8281" y1="83.7474" x2="344.127" y2="332.653" gradientUnits="userSpaceOnUse">
<stop stop-color="#00E009"/>
<stop offset="0.489583" stop-color="#FFD600"/>
<stop offset="1" stop-color="#FF2828"/>
</linearGradient>
<linearGradient id="paint3_linear_1006_1879" x1="104.492" y1="96.0816" x2="327.434" y2="304.459" gradientUnits="userSpaceOnUse">
<stop stop-color="#00E009"/>
<stop offset="0.489583" stop-color="#FFD600"/>
<stop offset="1" stop-color="#FF2828"/>
</linearGradient>
<linearGradient id="paint4_linear_1006_1879" x1="119.24" y1="104.662" x2="316.521" y2="282.346" gradientUnits="userSpaceOnUse">
<stop stop-color="#00E009"/>
<stop offset="0.489583" stop-color="#FFD600"/>
<stop offset="1" stop-color="#FF2828"/>
</linearGradient>
<linearGradient id="paint5_linear_1006_1879" x1="131.53" y1="112.17" x2="306.245" y2="264.19" gradientUnits="userSpaceOnUse">
<stop stop-color="#00E009"/>
<stop offset="0.489583" stop-color="#FFD600"/>
<stop offset="1" stop-color="#FF2828"/>
</linearGradient>
<linearGradient id="paint6_linear_1006_1879" x1="143.821" y1="120.75" x2="293.108" y2="247.359" gradientUnits="userSpaceOnUse">
<stop stop-color="#00E009"/>
<stop offset="0.489583" stop-color="#FFD600"/>
<stop offset="1" stop-color="#FF2828"/>
</linearGradient>
</defs>
</svg>
