<svg xmlns="http://www.w3.org/2000/svg" width="32" height="32" viewBox="0 0 32 32">
  <g fill="none">
    <circle cx="16" cy="16" r="16" fill="#8247E5"/>
    <path fill="#FFF" d="M21.092 12.693c-.369-.215-.848-.215-1.254 0l-2.879 1.654-1.955 1.078-2.879 1.653c-.369.216-.848.216-1.254 0l-2.288-1.315c-.369-.215-.627-.647-.627-1.117V12.07c0-.47.221-.901.627-1.116l2.25-1.315c.37-.216.849-.216 1.255 0l2.25 1.315c.37.215.627.646.627 1.116v1.653l1.955-1.115v-1.653c0-.47-.221-.902-.627-1.116L13.04 6.993c-.369-.216-.848-.216-1.254 0L8.44 9.839c-.407.214-.628.646-.628 1.116v5.768c0 .47.221.901.628 1.116l3.345 1.954c.369.215.849.215 1.254 0l2.879-1.654 1.955-1.078 2.879-1.653c.369-.216.848-.216 1.254 0l2.251 1.315c.37.215.627.646.627 1.116v2.577c0 .47-.221.901-.627 1.116l-2.251 1.315c-.37.215-.849.215-1.255 0l-2.25-1.315c-.37-.216-.627-.647-.627-1.116v-1.654l-1.955 1.116v1.653c0 .47.221.901.627 1.116l3.345 1.954c.369.215.848.215 1.254 0l3.346-1.954c.406-.215.627-.646.627-1.116V14.57c0-.47-.221-.901-.627-1.116l-3.346-1.761z"/>
  </g>
</svg>
