<svg width="62" height="63" viewBox="0 0 62 63" fill="none" xmlns="http://www.w3.org/2000/svg">
<path fill-rule="evenodd" clip-rule="evenodd" d="M9.6875 0H52.3125C57.6628 0 62 4.4072 62 9.84375V53.1562C62 58.5928 57.6628 63 52.3125 63H9.6875C4.33724 63 0 58.5928 0 53.1562V9.84375C0 4.4072 4.33724 0 9.6875 0ZM32.3405 23.6395C29.564 24.813 24.0151 27.2417 15.6936 30.9257C14.3423 31.4717 13.6345 32.0059 13.57 32.5282C13.4611 33.4109 14.549 33.7585 16.0304 34.2319C16.2319 34.2962 16.4407 34.363 16.6547 34.4337C18.1122 34.9151 20.0727 35.4783 21.0919 35.5006C22.0165 35.5209 23.0483 35.1336 24.1875 34.3387C31.9626 29.0057 35.9761 26.3102 36.228 26.2521C36.4058 26.2111 36.6521 26.1595 36.819 26.3103C36.986 26.461 36.9695 26.7465 36.9519 26.8231C36.8441 27.2899 32.5738 31.324 30.3639 33.4116C29.675 34.0624 29.1863 34.5241 29.0864 34.6295C28.8627 34.8657 28.6346 35.0891 28.4154 35.3038C27.0614 36.6301 26.046 37.6248 28.4716 39.249C29.6373 40.0296 30.57 40.675 31.5006 41.3189C32.5168 42.0222 33.5305 42.7236 34.8419 43.5971C35.1761 43.8197 35.4952 44.0509 35.806 44.276C36.9887 45.1328 38.0512 45.9025 39.3639 45.7797C40.1267 45.7084 40.9146 44.9796 41.3147 42.806C42.2603 37.6691 44.1191 26.5389 44.5487 21.9525C44.5864 21.5506 44.539 21.0364 44.501 20.8106C44.463 20.5849 44.3835 20.2632 44.0947 20.0251C43.7527 19.7431 43.2247 19.6837 42.9886 19.6877C41.915 19.7071 40.2677 20.2891 32.3405 23.6395Z" fill="white"/>
</svg>
