<svg width="63" height="62" viewBox="0 0 63 62" fill="none" xmlns="http://www.w3.org/2000/svg">
<path fill-rule="evenodd" clip-rule="evenodd" d="M0 9.6875C0 4.33724 4.4072 0 9.84375 0H53.1562C58.5928 0 63 4.33724 63 9.6875V52.3125C63 57.6628 58.5928 62 53.1562 62H9.84375C4.4072 62 0 57.6628 0 52.3125V9.6875ZM43.5094 22.2812C44.8875 22.0875 46.0687 21.8938 47.25 21.3125C46.4625 22.6687 45.2812 23.8313 43.9031 24.6062C44.2969 33.7125 37.6031 43.5938 25.5938 43.5938C22.05 43.5938 18.7031 42.4312 15.75 40.6875C19.0969 41.075 22.6406 40.1062 25.0031 38.3625C22.05 38.3625 19.6875 36.425 18.9 33.9062C19.8844 34.1 20.8688 33.9062 21.8531 33.7125C18.9 32.9375 16.7344 30.225 16.7344 27.3188C17.7188 27.7063 18.7031 28.0938 19.6875 28.0938C16.9313 26.1562 15.9469 22.475 17.7188 19.5688C21.0656 23.4438 25.7906 25.9625 31.1063 26.1562C30.1219 22.2812 33.2719 18.4062 37.4062 18.4062C39.1781 18.4062 40.95 19.1812 42.1312 20.3438C43.7062 19.9563 45.0844 19.5687 46.2656 18.7937C45.8719 20.3438 44.8875 21.5063 43.5094 22.2812Z" fill="white"/>
</svg>
