<svg width="25" height="25" viewBox="0 0 25 25" fill="none" xmlns="http://www.w3.org/2000/svg">
<path d="M15.9896 6.04999C15.198 6.04986 14.4381 6.34797 13.8732 6.8802C13.3082 7.41243 12.9835 8.13626 12.9687 8.89599L12.9396 10.471C12.938 10.5556 12.9178 10.639 12.8803 10.7156C12.8427 10.7923 12.7888 10.8604 12.7219 10.9155C12.655 10.9707 12.5767 11.0116 12.4921 11.0357C12.4075 11.0597 12.3186 11.0663 12.2312 11.055L10.6041 10.842C8.4656 10.562 6.4156 9.61699 4.44789 8.04399C3.82602 11.354 5.04164 13.647 7.97185 15.416L9.79164 16.514C9.87796 16.5661 9.94968 16.6377 10.0005 16.7226C10.0514 16.8074 10.0799 16.9029 10.0835 17.0007C10.0871 17.0986 10.0657 17.1957 10.0212 17.2838C9.97666 17.3719 9.91038 17.4482 9.8281 17.506L8.16977 18.67C9.15623 18.73 10.0927 18.688 10.8698 18.54C15.7844 17.598 19.0521 14.048 19.0521 8.19199C19.0521 7.71399 17.9969 6.04999 15.9896 6.04999ZM10.8854 8.85999C10.9036 7.89604 11.2176 6.95866 11.7881 6.16521C12.3585 5.37177 13.1602 4.75751 14.0926 4.39936C15.025 4.04121 16.0468 3.95507 17.0299 4.15174C18.0131 4.34841 18.914 4.81914 19.6198 5.50499C20.3604 5.49999 20.9906 5.67999 22.3989 4.85899C22.051 6.49899 21.8781 7.21199 21.1354 8.19099C21.1354 15.832 16.2427 19.549 11.2771 20.5C7.87393 21.152 2.92289 20.081 1.50623 18.658C2.2281 18.605 5.1656 18.302 6.86352 17.108C5.42602 16.198 -0.290649 12.968 3.46664 4.28599C5.23018 6.26299 7.01872 7.60799 8.83122 8.32299C10.0364 8.79799 10.3333 8.78799 10.8864 8.86099L10.8854 8.85999Z" fill="white"/>
</svg>
